<svg xmlns="http://www.w3.org/2000/svg" viewBox="0 0 64 64" aria-label="Custom cakes, cupcakes, scones and more">
  <g fill="none" stroke="#d81b72" stroke-width="4.5" stroke-linecap="round" stroke-linejoin="round">
    <path d="M22 31h20l-2 14.5a4 4 0 0 1-4 3.5H28a4 4 0 0 1-4-3.5z"/>
    <path d="M20 35h24"/>
    <path d="M24 31c-2.1-1.9-3.3-4-3.3-6.5 0-4.4 3.3-7.5 7.3-7.5 2 0 3.9.9 5 2.4 1.1-1.5 3-2.4 5-2.4 4 0 7.3 3.1 7.3 7.5 0 2.5-1.2 4.6-3.3 6.5"/>
    <path d="M32 22.6c1.6-1.1 3.2-2.5 3.2-4.5a2.4 2.4 0 0 0-3.2-2.1 2.4 2.4 0 0 0-3.2 2.1c0 2 1.6 3.4 3.2 4.5z"/>
  </g>
</svg>
