<svg xmlns="http://www.w3.org/2000/svg" viewBox="0 0 64 64" aria-label="WhatsApp Orders">
  <path fill="#d81b72" d="M32 7C18.2 7 7 17.8 7 31.2c0 4.4 1.2 8.5 3.4 12.1L7 57l14-3.6c3.4 1.8 7.2 2.8 11 2.8 13.8 0 25-10.9 25-24.3S45.8 7 32 7zm0 44.5c-3.4 0-6.7-.9-9.6-2.7l-.7-.4-8.3 2.2 2.2-8.1-.5-.8c-2-3.1-3-6.7-3-10.5 0-10.8 8.9-19.6 19.9-19.6s19.9 8.8 19.9 19.6S43 51.5 32 51.5z"/>
  <path fill="#d81b72" d="M43.4 36.9c-.6-.3-3.8-1.8-4.4-2-.6-.2-1-.3-1.5.3-.4.6-1.7 2-2.1 2.4-.4.4-.8.4-1.4.1-.6-.3-2.6-.9-5-3-1.8-1.6-3.1-3.6-3.5-4.2-.4-.6 0-.9.3-1.2.3-.3.6-.7.9-1 .3-.4.4-.6.6-1 .2-.4.1-.8 0-1.1-.1-.3-1.4-3.3-1.9-4.5-.5-1.2-1-1-1.4-1h-1.2c-.4 0-1.1.1-1.7.8-.6.6-2.2 2.1-2.2 5.1s2.2 5.9 2.6 6.3c.3.4 4.3 6.7 10.7 9.1 1.5.6 2.7 1 3.6 1.3 1.5.5 2.9.4 4 .2 1.2-.2 3.8-1.5 4.3-3 .5-1.5.5-2.7.4-3-.2-.2-.6-.4-1.2-.7z"/>
</svg>
