<svg xmlns="http://www.w3.org/2000/svg" viewBox="0 0 48 48" role="img" aria-label="WhatsApp">
  <circle cx="24" cy="24" r="21" fill="#ff1493"/>
  <path fill="#fff" d="M24.07 12.25c-6.46 0-11.7 5.14-11.7 11.48 0 2.05.55 4.02 1.58 5.74l-1.68 6.1 6.27-1.64a11.89 11.89 0 0 0 5.53 1.39c6.46 0 11.7-5.15 11.7-11.49 0-6.33-5.24-11.48-11.7-11.48zm0 20.96a9.8 9.8 0 0 1-4.97-1.35l-.36-.21-3.72.98 1-3.61-.24-.37a9.51 9.51 0 0 1-1.52-5.12c0-5.26 4.39-9.54 9.8-9.54 5.4 0 9.8 4.28 9.8 9.54 0 5.27-4.4 9.55-9.8 9.55zm5.37-7.2c-.3-.15-1.83-.89-2.12-.98-.29-.1-.5-.15-.7.14-.2.3-.8.98-.98 1.18-.18.2-.35.23-.66.08-.3-.15-1.29-.47-2.45-1.49-.9-.8-1.5-1.8-1.69-2.1-.18-.3-.02-.46.14-.61.14-.13.3-.34.45-.5.15-.18.2-.3.3-.5.1-.2.05-.38-.03-.53-.08-.15-.7-1.67-.96-2.28-.25-.6-.5-.52-.7-.53l-.6-.01c-.2 0-.53.08-.8.38-.28.3-1.06 1.03-1.06 2.5s1.08 2.88 1.23 3.08c.15.2 2.12 3.36 5.25 4.58.74.32 1.33.5 1.78.64.75.23 1.43.2 1.96.12.6-.09 1.82-.73 2.08-1.45.26-.71.26-1.32.18-1.45-.08-.13-.28-.2-.58-.35z"/>
</svg>
